<svg version="1.1" xml:space="preserve" xmlns="http://www.w3.org/2000/svg"
     width="40" height="40">
    <g transform="scale(0.0390625)"><path d="M512.441 494.362L133.683 282.709L512.441 64L892.081 282.709L512.441 494.362Z" fill="#f89f1c" />
<path d="M500.08 522.583L121.323 303.874L120.44 741.291L500.08 960L500.08 522.583Z" fill="#002e9b" />
<path d="M524.801 522.583L524.801 960L903.558 741.291L904.441 303.874L524.801 522.583Z" fill="#000000" />
<path d="M598.08 783.622L598.08 840.063L781.72 734.236L781.72 677.795L598.08 783.622Z" fill="#ffffff" />
<path d="M429.258 330.04C423.113 325.956 416.837 322.348 411.422 317.733C402.31 309.968 398.624 299.909 400.194 287.787C401.217 279.881 401.268 271.852 401.82 263.882C402.647 251.951 403.608 240.029 404.367 228.094C405.003 218.089 405.602 208.076 405.905 198.057C406.247 186.715 410.27 184.099 421.966 182.431C426.425 181.795 430.987 182.054 435.291 184.523C439.44 186.903 440.602 190.044 440.183 194.54C439.651 200.244 439.506 205.991 439.417 211.722C439.407 212.345 441.104 213.691 441.617 213.521C454.37 209.292 467.487 208.26 480.829 208.326C494.167 208.392 507.508 207.966 520.846 207.708C525.075 207.626 529.032 208.458 532.74 210.545C535.751 212.24 538.235 214.588 538.197 218.077C538.158 221.683 535.361 224.25 532.268 225.297C527.738 226.83 522.935 227.926 518.175 228.319C512.084 228.822 505.919 228.364 499.788 228.458C489.409 228.618 479.003 228.487 468.662 229.225C458.736 229.933 449.754 233.674 442.321 240.506C439.103 243.463 438.689 247.515 438.608 251.622C438.351 264.69 438.006 277.757 437.8 290.826C437.632 301.397 442.86 308.486 452.891 312.016C460.776 314.791 468.782 316.23 477.192 316.083C485.579 315.936 493.977 316.439 502.37 316.673C509.873 316.883 517.375 317.124 524.877 317.337C533.052 317.569 541.29 317.229 549.386 318.145C560.06 319.354 570.303 318.516 579.958 313.894C583.978 311.97 587.852 309.277 590.974 306.125C592.778 304.303 593.706 300.875 593.721 298.162C593.772 289.377 593.452 280.572 592.836 271.806C592.154 262.11 594.266 260.345 602.452 257.711C611.638 254.755 620.729 255.689 629.226 260.529C633.77 263.117 634.414 267.524 634.852 272.248C635.703 281.439 637.279 290.572 637.931 299.773C638.601 309.211 633.977 316.721 626.971 322.433C621.497 326.896 615.615 331.247 609.222 334.096C601.367 337.596 592.936 340.219 584.489 341.861C576.148 343.482 567.479 343.916 558.95 343.951C547.243 344 535.532 343.192 523.823 342.734C518.768 342.536 513.716 342.271 508.662 342.074C496.84 341.615 485.006 341.377 473.199 340.674C462.591 340.042 451.965 339.105 441.881 335.359C437.682 333.8 433.632 331.841 429.258 330.04Z" fill="#ffffff" />
<path d="M619.965 220.956C620.597 225.273 617.677 227.321 614.932 228.922C602.218 236.337 589.33 243.456 576.559 250.775C562.197 259.006 547.934 267.409 533.545 275.592C527.027 279.298 520.56 283.296 513.616 286.001C505.247 289.26 496.886 287.539 489.455 282.533C484.248 279.026 484.643 272.681 490.315 269.241C498.957 263.999 507.765 259.03 516.517 253.969C526.47 248.214 536.428 242.468 546.405 236.753C554.708 231.998 563.033 227.282 571.363 222.575C576.317 219.775 581.314 217.051 586.265 214.246C591.592 211.23 597.408 210.504 603.3 211.172C608.442 211.755 613.524 213.08 617.405 216.905C618.469 217.954 619.117 219.424 619.965 220.956Z" fill="#ffffff" />
<path d="M341.664 729.127C347.11 732.284 352.462 735.43 357.894 738.428C359.253 739.178 359.73 739.955 359.73 741.534C359.733 755.764 359.847 769.995 359.928 784.225C359.931 784.67 359.929 785.115 359.929 785.823C358.595 785.079 357.409 784.434 356.238 783.763C353.07 781.947 349.907 780.121 346.744 778.296C343.173 776.235 339.605 774.169 336.032 772.111C333.106 770.424 330.174 768.746 327.245 767.063C322.514 764.343 317.788 761.614 313.051 758.904C309.95 757.129 306.826 755.395 303.727 753.617C300.15 751.566 296.594 749.477 293.02 747.422C289.513 745.406 285.991 743.418 282.483 741.405C278.736 739.256 274.999 737.09 271.255 734.937C267.781 732.94 264.302 730.952 260.828 728.955C256.642 726.549 252.462 724.133 248.273 721.731C245.821 720.324 243.349 718.953 240.911 717.522C240.604 717.342 240.256 716.899 240.255 716.577C240.223 701.432 240.227 686.288 240.227 670.955C253.526 678.585 266.712 686.151 279.99 693.77C279.99 647.8 279.99 601.945 279.99 556.143C266.943 548.659 253.912 541.183 240.744 533.63C240.744 548.993 240.744 564.164 240.744 579.642C227.371 571.973 214.182 564.41 200.93 556.81C200.93 526.208 200.93 495.515 200.93 464.629C202.674 465.592 204.369 466.502 206.039 467.455C209.073 469.187 212.093 470.945 215.117 472.694C219.81 475.406 224.496 478.129 229.195 480.83C232.293 482.611 235.415 484.35 238.515 486.128C242.091 488.179 245.652 490.258 249.226 492.313C252.733 494.329 256.252 496.324 259.758 498.34C263.911 500.728 268.051 503.139 272.207 505.52C275.308 507.297 278.434 509.027 281.533 510.804C285.11 512.856 288.664 514.947 292.239 517.003C295.745 519.019 299.269 521.004 302.777 523.016C306.524 525.165 310.259 527.335 314.004 529.488C317.443 531.465 320.892 533.426 324.331 535.403C328.552 537.829 332.761 540.275 336.987 542.693C340.531 544.72 344.102 546.701 347.641 548.737C351.761 551.106 355.848 553.532 359.972 555.895C363.65 558.003 367.371 560.035 371.05 562.142C375.173 564.505 379.265 566.923 383.38 569.302C386.848 571.307 390.327 573.296 393.807 575.282C395.581 576.294 397.368 577.284 399.206 578.317C399.206 608.917 399.206 639.558 399.206 670.475C398.17 669.931 397.218 669.469 396.302 668.943C392.727 666.889 389.164 664.812 385.594 662.749C381.447 660.351 377.302 657.95 373.145 655.569C370.045 653.793 366.928 652.046 363.818 650.286C362.519 649.551 361.184 648.869 359.942 648.048C359.625 647.838 359.462 647.189 359.46 646.742C359.434 636.319 359.44 625.896 359.44 615.473C359.44 611.198 359.423 606.923 359.457 602.649C359.463 601.903 359.208 601.539 358.557 601.173C354.349 598.804 350.181 596.365 345.989 593.968C342.444 591.942 338.874 589.96 335.334 587.925C331.214 585.556 327.119 583.144 323.005 580.765C322.133 580.261 321.223 579.823 320.189 579.279C320.189 625.253 320.189 671.029 320.189 716.856C326.633 720.538 333.138 724.255 339.644 727.97C340.292 728.34 340.947 728.698 341.664 729.127Z" fill="#ffffff" />
    </g>
</svg>
